<?xml version="1.0" encoding="UTF-8"?>
<!DOCTYPE svg PUBLIC "-//W3C//DTD SVG 1.1//EN" "http://www.w3.org/Graphics/SVG/1.1/DTD/svg11.dtd">
<!-- Creator: CorelDRAW Home & Student X7 -->
<svg xmlns="http://www.w3.org/2000/svg" xml:space="preserve" width="328.93mm" height="247.735mm" version="1.1" style="shape-rendering:geometricPrecision; text-rendering:geometricPrecision; image-rendering:optimizeQuality; fill-rule:evenodd; clip-rule:evenodd"
viewBox="0 0 32893 24773"
 xmlns:xlink="http://www.w3.org/1999/xlink">
 <defs>
  <style type="text/css">
   <![CDATA[
    .str6 {stroke:white;stroke-width:50}
    .str5 {stroke:black;stroke-width:20}
    .str0 {stroke:black;stroke-width:50;stroke-linecap:round;stroke-linejoin:round}
    .str3 {stroke:black;stroke-width:50;stroke-linecap:round;stroke-linejoin:round}
    .str4 {stroke:#DE7773;stroke-width:50;stroke-linecap:round;stroke-linejoin:round}
    .str2 {stroke:white;stroke-width:50;stroke-linecap:round;stroke-linejoin:round}
    .str1 {stroke:black;stroke-width:20;stroke-linecap:round;stroke-linejoin:round}
    .fil0 {fill:none}
    .fil3 {fill:black}
    .fil1 {fill:#D7F0F7}
    .fil4 {fill:#DE7773}
    .fil2 {fill:white}
    .fil5 {fill:#DE7773;fill-rule:nonzero}
   ]]>
  </style>
 </defs>
 <g id="Layer_x0020_1">
  <metadata id="CorelCorpID_0Corel-Layer"/>
  <rect class="fil0" width="32893" height="24773"/>
  <g id="_476867456">
   <path class="fil1" d="M6949 8075l1018 -864c0,0 -533,-135 -725,-194 -192,-59 -789,-223 -781,-242 7,-19 488,1300 488,1300zm11984 376l-392 -1518c557,185 979,266 1524,414l-1132 1104zm3159 -763c0,0 791,90 947,104 156,14 765,64 765,64l-1076 1165 -636 -1333zm-5723 -372l1224 969 618 -1470c0,0 -913,274 -1842,501zm-3406 386l975 1247 812 -1371c0,0 -1058,150 -1787,124zm-3596 -216l843 1413 933 -1225c0,0 -1041,-11 -1776,-188z"/>
   <path class="fil1" d="M21104 7071l548 -1729c0,0 -680,348 -890,447 -211,99 -1129,501 -1129,501l1471 781z"/>
   <path class="fil1" d="M24081 5536l199 -1813c0,0 -300,220 -560,390 -260,171 -922,584 -922,584l1283 839z"/>
   <path class="fil1" d="M15549 6793c36,0 1138,-687 1138,-687 0,0 -534,-334 -699,-418 -165,-84 -612,-417 -612,-417l173 1522z"/>
   <path class="fil0 str0" d="M6378 6719c0,0 3352,1459 8553,838 5202,-622 9478,-3930 9478,-3930"/>
   <path class="fil0 str0" d="M25493 7932c0,0 -4277,-29 -7152,-1069 -2299,-832 -3627,-2046 -5279,-3665"/>
   <g>
    <path class="fil2 str0" d="M23574 14792c0,0 245,-522 227,-762 -18,-239 -123,-402 -101,-657 21,-255 246,-276 260,-262 13,13 477,-377 477,-377l1093 1112c0,0 -289,614 -602,743 -313,129 -387,694 -387,694l-967 -491z"/>
    <path class="fil2 str0" d="M11803 8355c0,0 177,-521 405,-867 227,-347 328,-647 281,-719 -47,-72 -220,65 -328,238 -109,174 -296,268 -296,268 0,0 140,-893 151,-1124 11,-231 -209,-65 -209,-65 0,0 -42,-148 -132,-143 -90,6 -137,141 -137,141 0,0 -118,-130 -219,4 -101,134 -190,336 -190,336 0,0 -139,-114 -298,309 -158,422 -192,1089 -227,1307 -35,218 -94,466 -94,466l1293 -151z"/>
    <path class="fil0 str0" d="M11194 7923c0,0 117,-208 301,-370 184,-163 358,-280 358,-280"/>
    <path class="fil0 str0" d="M10972 7367c0,0 40,-322 83,-546 44,-224 74,-328 75,-361"/>
    <path class="fil0 str0" d="M11292 7235c44,-384 139,-781 246,-1151"/>
    <path class="fil0 str0" d="M11590 7094c0,0 25,-179 98,-462 72,-284 113,-517 113,-517"/>
    <path class="fil3 str1" d="M15486 15643c0,0 -809,36 -1720,-1149 -910,-1185 -1430,-2196 -1430,-2196l-246 -4017c0,0 -740,-216 -1264,-97 -524,119 -834,383 -834,383 0,0 -87,4428 57,4999 145,570 2363,4060 2363,4060 0,0 -181,2976 -304,3619 -122,643 -310,1661 -310,1661l7961 0 -492 -3106c0,0 3085,708 3728,-282 643,-989 2001,-4356 2001,-4356l-1806 -708 -1567 3157c0,0 -1633,-361 -2579,-780 -947,-419 -1525,-860 -3558,-1188z"/>
    <path class="fil0 str2" d="M15862 22697c0,0 177,-3490 246,-4050 69,-559 156,-1244 155,-1278"/>
    <path class="fil4 str0" d="M15836 15427c0,0 -444,-120 -704,307 -261,426 -737,1719 -737,1719 0,0 646,-210 1192,-224 545,-15 688,-17 688,-17 0,0 767,421 1136,663 368,242 513,336 513,336 0,0 3,-1697 -188,-2087 -192,-390 -748,-492 -748,-492l-1152 -205z"/>
    <path class="fil2" d="M17626 12595c0,0 -773,-527 -1611,-426 -838,101 -795,412 -867,1293 -72,882 72,1474 285,1792 213,318 477,343 477,343l-85 314 450 1301c0,0 311,-373 545,-730 235,-358 282,-437 282,-437l311 -1232c0,0 347,51 502,-314 155,-365 -47,-614 -47,-614 0,0 369,-784 -242,-1290z"/>
    <path class="fil3 str1" d="M15193 12930c418,-34 948,-145 948,-145 0,0 -65,213 292,202 358,-11 748,116 809,289 62,173 -43,339 -10,451 32,112 57,279 68,445 11,166 76,32 184,-148 109,-181 258,-249 384,-139 0,0 202,249 47,614 -155,365 -502,314 -502,314l-121 480c191,-74 354,-154 671,-607 318,-452 625,-1510 571,-1719 -54,-210 36,-538 -636,-968 -672,-430 -1766,-481 -2344,-444 -578,36 -968,-196 -943,3 26,199 352,365 352,365 0,0 -648,-31 -643,233 6,264 712,325 712,325 0,0 -386,188 -325,354 61,166 486,95 486,95z"/>
    <path class="fil0 str0" d="M17510 14677c0,0 -70,-217 54,-422 125,-206 235,-246 235,-246"/>
    <line class="fil0 str0" x1="17720" y1="14491" x2="17564" y2= "14255" />
    <path class="fil0 str0" d="M15910 13673c0,0 -107,289 -164,406 -58,118 -98,195 -98,195l269 71"/>
    <path class="fil0 str0" d="M16309 13888c0,0 98,-285 253,-224 155,61 143,289 143,289"/>
    <path class="fil0 str0" d="M15310 13742c0,0 53,-237 197,-201 145,36 150,230 150,230"/>
    <path class="fil2 str0" d="M15836 14628c0,0 150,13 327,-14 177,-27 343,-54 343,-54 0,0 4,397 -309,406 -312,9 -361,-338 -361,-338z"/>
    <path class="fil0 str0" d="M15347 13283c0,0 92,-1 157,9 64,10 108,21 108,21"/>
    <path class="fil0 str0" d="M16367 13391c0,0 144,9 220,18 76,9 137,33 137,33"/>
    <path class="fil0 str0" d="M17091 15136c-208,391 -604,512 -1076,467"/>
    <path class="fil0 str2" d="M15410 12524c0,0 357,-141 592,-152 235,-11 444,15 444,15"/>
    <path class="fil0 str2" d="M15413 12069c0,0 517,94 748,72"/>
    <path class="fil0 str2" d="M15999 11930c135,-11 263,11 263,11"/>
    <path class="fil0 str2" d="M17694 13257c0,0 26,152 19,204 -8,52 -22,74 -22,74"/>
    <path class="fil0 str2" d="M17900 13651c50,-135 64,-368 57,-514"/>
    <path class="fil0 str2" d="M18149 13292c0,0 19,-95 9,-219 -10,-125 -23,-170 -23,-170"/>
    <path class="fil0 str3" d="M15221 12748c-37,182 -48,415 -73,714 -72,882 72,1474 285,1792 213,318 477,343 477,343l-85 314 450 1301c0,0 311,-373 545,-730 235,-358 282,-437 282,-437l311 -1232c0,0 347,51 502,-314 155,-365 -47,-614 -47,-614"/>
    <path class="fil0 str4" d="M10292 8891c0,0 440,-226 859,-282 419,-56 708,-25 708,-25"/>
    <path class="fil0 str4" d="M23235 14965c0,0 593,264 911,376 318,112 549,195 549,195"/>
    <line class="fil0 str0" x1="15715" y1="15648" x2="15825" y2= "15911" />
    <line class="fil0 str0" x1="17227" y1="15866" x2="17102" y2= "16045" />
    <line class="fil0 str2" x1="19279" y1="19612" x2="19170" y2= "18709" />
    <path class="fil0 str2" d="M12509 17416c0,0 123,-456 102,-810 -22,-354 -102,-570 -102,-570"/>
    <line class="fil0 str2" x1="21940" y1="18061" x2="21698" y2= "17714" />
    <path class="fil0 str2" d="M14904 17128c0,0 289,-92 593,-106 303,-15 505,14 505,14"/>
    <path class="fil0 str2" d="M16732 17190c0,0 226,135 482,309 257,173 462,335 462,335"/>
    <path class="fil2 str0" d="M23502 11364c0,0 -292,30 -442,307 -151,276 -96,479 -96,479 0,0 1309,1231 1788,1784 479,553 1038,1179 1038,1179 0,0 233,77 470,-224 236,-301 70,-651 70,-651 0,0 -1729,-1692 -1965,-1907 -237,-215 -863,-967 -863,-967z"/>
    <path class="fil4" d="M23766 12997c0,0 15,-184 255,-457 239,-274 393,-289 393,-289l1164 1170c0,0 -301,197 -439,384 -139,187 -215,375 -215,375l-1158 -1183z"/>
    <path class="fil0 str0" d="M25814 15012c0,0 -70,-154 22,-421 92,-267 448,-335 448,-335"/>
    <path class="fil0 str0" d="M26284 14256c2,108 28,369 -98,538 -126,169 -274,224 -283,83 -9,-142 132,-446 209,-400 77,46 49,215 49,215l-179 -98"/>
    <line class="fil0 str0" x1="26001" y1="14380" x2="26112" y2= "14477" />
    <path class="fil2 str0" d="M25666 13589c0,0 70,-288 -1,-445 -71,-156 -175,-107 -175,-107 0,0 31,-89 -52,-188 -83,-98 -203,-49 -203,-49 0,0 -38,-150 -124,-204 -86,-53 -229,-18 -229,-18 0,0 -3,-185 -157,-211 -153,-26 -245,157 -368,434 -122,276 -93,400 -24,443 69,43 151,-22 151,-22 -57,178 165,242 266,143 0,0 -31,157 57,194 87,37 153,-34 153,-34 -22,427 412,10 513,-124l193 188z"/>
    <path class="fil2" d="M24327 13160c93,15 346,110 352,141 6,30 -129,222 -313,193 -184,-29 -667,-107 -667,-107 33,-500 416,-263 628,-227z"/>
    <path class="fil0 str0" d="M24538 13159c50,-297 193,-448 344,-581"/>
    <path class="fil0 str0" d="M24772 13255c0,0 77,-219 209,-333 132,-113 254,-122 254,-122"/>
    <path class="fil0 str0" d="M25020 13448c0,0 140,-177 231,-269 90,-92 239,-142 239,-142"/>
    <line class="fil0 str0" x1="25618" y1="13294" x2="25473" y2= "13401" />
    <path class="fil0 str3" d="M23699 13387c33,-500 416,-263 628,-227 93,15 346,110 352,141 6,30 -129,222 -313,193 -77,-12 -205,-33 -329,-53"/>
    <path class="fil0 str0" d="M24469 14219c-42,-253 -77,-551 -252,-749"/>
   </g>
   <g>
    <polygon class="fil2 str0" points="19598,8373 19136,11566 21599,11003 22022,7730 "/>
    <line class="fil0 str4" x1="20093" y1="8904" x2="21216" y2= "8600" />
    <line class="fil0 str0" x1="20032" y1="9345" x2="21156" y2= "9041" />
    <line class="fil0 str0" x1="19990" y1="9626" x2="21113" y2= "9323" />
    <line class="fil0 str0" x1="20049" y1="9952" x2="20992" y2= "9697" />
    <polyline class="fil0 str4" points="19937,10394 20158,10802 20905,10152 "/>
   </g>
   <polygon class="fil1" points="15894,8613 15417,9271 15728,9444 16226,8787 "/>
   <polygon class="fil4" points="13470,5853 13939,6568 14243,6229 13824,5608 "/>
   <polygon class="fil1" points="24198,6973 24003,7186 24357,7468 24490,7259 "/>
   <polygon class="fil4" points="24953,9336 25209,9086 25274,9509 25505,9708 25238,9823 25137,10213 24960,9957 24555,10033 24740,9657 24631,9260 "/>
   <polygon class="fil4" points="9316,18468 9060,18218 8995,18641 8764,18840 9031,18955 9132,19345 9309,19089 9714,19165 9529,18789 9638,18392 "/>
   <path class="fil3" d="M7496 15054c0,0 104,281 296,473 191,191 292,202 292,202l170 -303c0,0 -260,-206 -343,-344 -83,-137 -137,-274 -137,-274l-278 246z"/>
   <polygon class="fil3" points="9136,21577 9154,22202 9515,22097 9446,21606 "/>
   <path class="fil1" d="M21595 21181l-260 390c0,0 224,195 235,173 11,-22 202,-394 202,-394l-177 -169z"/>
   <path class="fil4" d="M24086 20750c0,0 263,-188 325,-275 61,-87 112,-184 112,-184l372 235c0,0 -101,224 -231,339 -130,116 -221,130 -221,130l-357 -245z"/>
   <path class="fil4" d="M20853 13518c0,0 40,130 148,249 108,120 192,174 192,174l-224 339c0,0 -228,-151 -297,-238 -68,-87 -112,-228 -112,-228l293 -296z"/>
   <path class="fil1" d="M23797 3589c0,0 -11,177 -101,271 -91,93 -177,137 -177,137l216 90c0,0 87,-29 177,-170 91,-141 94,-159 94,-159l-209 -169z"/>
   <path class="fil3" d="M17718 4007c0,0 -22,177 -134,289 -112,112 -116,116 -116,116l260 72c0,0 109,-68 170,-224 62,-155 80,-216 80,-216 0,0 -261,-35 -260,-37z"/>
   <path class="fil4" d="M7491 4556l28 -8 371 -114 27 -668 -335 132c0,0 -77,654 -91,658z"/>
   <path class="fil0 str0" d="M8583 12958c0,0 -636,-607 -766,-1380 -130,-772 600,-664 737,-216 137,448 -788,693 -1134,-282 -347,-975 303,-1748 693,-1488 390,260 383,1018 -195,693 -578,-325 -542,-1300 -318,-1900 224,-599 795,-448 795,-448"/>
   <path class="fil0 str4" d="M24981 19958c0,0 752,-469 911,-1018 159,-549 -260,-947 -687,-513 -426,433 614,809 954,-116 340,-924 -751,-1343 -751,-1343"/>
   <g>
    <path class="fil5" d="M9697 4723c21,-31 63,-39 94,-18 31,21 39,63 18,94 0,1 -156,228 -463,722 -229,371 -608,494 -809,534 -105,53 -291,156 -291,156 0,0 -97,-19 -155,-156 -58,-137 71,-249 71,-249 0,0 327,71 419,100 186,-48 470,-167 649,-456 302,-487 466,-726 467,-727z"/>
    <polygon class="fil3 str5" points="12146,4748 11305,5276 11130,4717 9220,4972 11952,1948 15703,2460 14207,3401 14313,3753 "/>
    <path class="fil4" d="M12610 4096c830,-424 1616,-516 1699,-354 83,163 -522,638 -1352,1061 -829,424 -1569,636 -1652,473 -83,-162 476,-756 1305,-1180z"/>
    <path class="fil0 str6" d="M11077 4576l-82 -226c566,-1186 1847,-1593 3053,-1374l128 352"/>
   </g>
   <path class="fil1" d="M21051 3837l396 250c0,0 189,-229 167,-239 -21,-10 -398,-193 -398,-193l-165 182z"/>
   <path class="fil0 str0" d="M19428 16000c0,0 -205,-530 -76,-874 130,-343 498,-386 550,1 53,387 -627,180 -445,-426 181,-606 903,-402 903,-402"/>
  </g>
 </g>
</svg>
