<?xml version="1.0" encoding="UTF-8"?>
<!DOCTYPE svg PUBLIC "-//W3C//DTD SVG 1.1//EN" "http://www.w3.org/Graphics/SVG/1.1/DTD/svg11.dtd">
<!-- Creator: CorelDRAW Home & Student X7 -->
<svg xmlns="http://www.w3.org/2000/svg" xml:space="preserve" width="328.93mm" height="247.735mm" version="1.1" style="shape-rendering:geometricPrecision; text-rendering:geometricPrecision; image-rendering:optimizeQuality; fill-rule:evenodd; clip-rule:evenodd"
viewBox="0 0 32893 24773"
 xmlns:xlink="http://www.w3.org/1999/xlink">
 <defs>
  <style type="text/css">
   <![CDATA[
    .str2 {stroke:black;stroke-width:50;stroke-linecap:round;stroke-linejoin:round}
    .str3 {stroke:black;stroke-width:50;stroke-linecap:round;stroke-linejoin:round}
    .str4 {stroke:#6CA3B7;stroke-width:50;stroke-linecap:round;stroke-linejoin:round}
    .str5 {stroke:#DE7773;stroke-width:50;stroke-linecap:round;stroke-linejoin:round}
    .str1 {stroke:white;stroke-width:50;stroke-linecap:round;stroke-linejoin:round}
    .str0 {stroke:black;stroke-width:20;stroke-linecap:round;stroke-linejoin:round}
    .fil0 {fill:none}
    .fil1 {fill:black}
    .fil4 {fill:#D7F0F7}
    .fil3 {fill:#DE7773}
    .fil2 {fill:white}
   ]]>
  </style>
 </defs>
 <g id="Layer_x0020_1">
  <metadata id="CorelCorpID_0Corel-Layer"/>
  <rect class="fil0" width="32893" height="24773"/>
  <g id="_476871824">
   <path class="fil1 str0" d="M7704 15197c0,0 -2037,3250 -1748,4912 289,1662 2601,1719 4783,1257 2181,-462 6891,-2644 6891,-2644 380,-155 1373,-1055 622,-2442 -752,-1387 -5028,-1575 -5028,-1575l-5520 492z"/>
   <line class="fil0 str1" x1="8751" y1="18619" x2="13793" y2= "18049" />
   <path class="fil2 str2" d="M14820 18075c0,0 181,242 202,697 22,456 -51,1112 -51,1112 0,0 1370,178 2446,568 1077,390 1712,-195 1228,-982 -484,-788 -1583,-1320 -2102,-1474 -519,-154 -773,-231 -773,-231l-950 310z"/>
   <path class="fil3" d="M8844 17290l2952 1624 5099 -1293 1348 -2732 384 -822 -251 -222 -413 88 0 0c-1006,206 -4402,939 -4402,939l-211 54c-84,209 -186,395 -291,578l-327 728 -72 19 -3816 1039z"/>
   <polyline class="fil0 str1" points="11894,18704 13585,15118 18425,14105 "/>
   <path class="fil2" d="M10012 16769c149,143 502,487 667,684 212,254 280,380 423,388 142,8 169,-27 197,-45 0,0 95,99 219,83 124,-17 156,-81 156,-81 0,0 79,22 154,-5 75,-27 78,-89 78,-89 0,0 146,-36 190,-189 44,-152 -12,-369 -12,-369 0,0 136,-189 30,-440 -96,-227 -490,-831 -860,-1109l-1242 1172z"/>
   <path class="fil0 str2" d="M10709 16983c140,161 524,627 590,813"/>
   <path class="fil0 str2" d="M11058 16815c0,0 140,134 336,416 197,282 230,453 273,578"/>
   <path class="fil0 str2" d="M11376 16617c244,257 474,737 530,1087"/>
   <path class="fil0 str2" d="M11632 16429c164,174 351,500 452,717"/>
   <path class="fil0 str3" d="M10012 16769c149,143 502,487 667,684 212,254 280,380 423,388 142,8 169,-27 197,-45 0,0 95,99 219,83 124,-17 156,-81 156,-81 0,0 79,22 154,-5 75,-27 78,-89 78,-89 0,0 146,-36 190,-189 44,-152 -12,-369 -12,-369 0,0 136,-189 30,-440 -96,-227 -490,-831 -860,-1109"/>
   <path class="fil4" d="M8445 8167c0,0 879,-776 2699,-1014 1820,-238 3630,149 4323,1882 693,1734 535,3917 454,5330l-1922 412 -164 -2653c0,0 -281,2186 -291,2475 -11,290 -404,496 -859,672 -455,176 -1277,181 -1277,181l-1417 1337c0,0 -3568,-1275 -3950,-2898 -383,-1624 1277,-5042 2404,-5724z"/>
   <path class="fil0 str2" d="M9058 10886l-786 2358c0,0 1458,988 1965,1345 506,357 1171,863 1171,863"/>
   <polyline class="fil0 str2" points="14265,9470 13972,11132 13730,12893 "/>
   <path class="fil0 str4" d="M10127 7360c343,1378 2527,1734 2370,-304"/>
   <path class="fil2" d="M12294 3655c1349,93 1339,623 1302,1321 -37,697 -218,1483 -595,2027 -277,401 -663,446 -847,442l0 0c53,269 -28,765 -747,723 -718,-42 -972,-887 -972,-887 0,0 103,-23 165,-41 28,-275 114,-1136 110,-1146 -5,-12 -371,-128 -371,-537 0,-409 321,-358 321,-358 131,-946 423,-1627 1634,-1544z"/>
   <path class="fil1 str2" d="M13601 4527c-243,14 -534,3 -834,-21 19,48 30,112 -5,175 -70,123 -584,-114 -584,-114 0,0 -49,191 -307,156 -200,-27 -349,-131 -405,-176l-11 2c0,0 -258,865 -274,970 -17,104 -212,-254 -521,-320 0,0 -321,-51 -321,358 0,409 366,525 371,537 1,5 -16,195 -39,425 0,0 -195,-100 -414,-556 -218,-456 -381,-1598 131,-2165 511,-567 1548,-632 1823,-711 274,-79 1513,-409 1697,-216 184,192 -156,451 -156,451 0,0 388,-3 463,160 74,163 -316,302 -321,353 -5,52 263,189 288,431 26,241 -580,261 -581,261l0 0z"/>
   <path class="fil0 str2" d="M10535 5386c0,0 144,81 242,214 97,133 135,312 135,312"/>
   <line class="fil0 str2" x1="10602" y1="5788" x2="10777" y2= "5600" />
   <path class="fil0 str2" d="M11071 6553c197,506 539,874 1083,892"/>
   <path class="fil0 str4" d="M9509 16598c0,0 475,-569 899,-931 424,-362 633,-491 633,-491"/>
   <line class="fil0 str4" x1="11229" y1="15621" x2="10859" y2= "15304" />
   <line class="fil0 str4" x1="10160" y1="16630" x2="9718" y2= "16359" />
   <line class="fil0 str4" x1="10357" y1="16443" x2="9932" y2= "16126" />
   <line class="fil0 str4" x1="10583" y1="16231" x2="10143" y2= "15912" />
   <line class="fil0 str4" x1="10801" y1="16025" x2="10393" y2= "15680" />
   <line class="fil0 str4" x1="11023" y1="15815" x2="10635" y2= "15479" />
   <path class="fil0 str3" d="M10600 7240c28,-275 114,-1136 110,-1146 -5,-12 -371,-128 -371,-537 0,-409 321,-358 321,-358m2934 -748c20,159 12,336 2,525 -37,697 -218,1483 -595,2027 -277,401 -663,446 -847,442l0 0"/>
   <line class="fil0 str2" x1="12658" y1="16380" x2="11722" y2= "18433" />
   <path class="fil0 str2" d="M7097 13554c534,-240 801,-299 1175,-310"/>
   <path class="fil0 str1" d="M13601 3869c-254,-98 -626,-181 -1101,-164"/>
   <path class="fil0 str1" d="M13423 3278c-270,-2 -441,0 -758,58"/>
   <path class="fil0 str1" d="M12776 4176c-151,-60 -343,-114 -576,-143"/>
   <path class="fil0 str1" d="M10870 5079c7,-120 22,-257 50,-392 13,-65 29,-129 48,-192"/>
   <path class="fil0 str1" d="M10654 4851c14,-178 46,-390 109,-582"/>
   <path class="fil0 str1" d="M10415 4991c0,-99 4,-211 16,-324"/>
   <g>
    <polygon class="fil2 str3" points="12544,11598 11773,14433 13984,13962 14816,11171 "/>
    <line class="fil0 str3" x1="12773" y1="12110" x2="14236" y2= "11824" />
    <line class="fil0 str3" x1="12630" y1="12623" x2="14093" y2= "12337" />
    <line class="fil0 str3" x1="12524" y1="13129" x2="13730" y2= "12893" />
    <line class="fil0 str3" x1="12354" y1="13624" x2="13238" y2= "13451" />
   </g>
   <g>
    <polygon class="fil2 str3" points="14987,9628 14216,12463 16426,11992 17258,9201 "/>
    <line class="fil0 str3" x1="15215" y1="10141" x2="16679" y2= "9854" />
    <line class="fil0 str3" x1="15073" y1="10653" x2="16536" y2= "10367" />
    <line class="fil0 str3" x1="14967" y1="11159" x2="16173" y2= "10923" />
    <line class="fil0 str3" x1="14796" y1="11655" x2="15681" y2= "11482" />
   </g>
   <g>
    <polygon class="fil2 str3" points="19500,8730 18729,11565 20939,11094 21771,8303 "/>
    <line class="fil0 str3" x1="19728" y1="9243" x2="21192" y2= "8957" />
    <line class="fil0 str3" x1="19586" y1="9756" x2="21049" y2= "9469" />
    <line class="fil0 str3" x1="19480" y1="10261" x2="20686" y2= "10025" />
    <line class="fil0 str3" x1="19309" y1="10757" x2="20194" y2= "10584" />
   </g>
   <path class="fil0 str2" d="M12686 5673c7,298 21,502 72,795 -95,30 -235,47 -331,23"/>
   <ellipse class="fil1" transform="matrix(2.17604 0.192625 -0.192625 2.17604 12057.2 5764.35)" rx="54" ry="63"/>
   <path class="fil0 str2" d="M11904 5357c95,-3 277,-13 425,17"/>
   <path class="fil0 str2" d="M12997 5285c68,-33 230,-65 352,-58"/>
   <ellipse class="fil1" transform="matrix(2.17604 0.192625 -0.192625 2.17604 13135.4 5660.25)" rx="54" ry="63"/>
   <path class="fil0 str2" d="M12038 6838l620 -72c0,0 -46,200 -291,223 -246,22 -329,-151 -329,-151z"/>
   <g>
    <path class="fil2 str2" d="M23407 8321l-314 2836c0,0 210,310 708,350 499,40 683,-134 683,-134l867 -2586c0,0 -1196,148 -1944,-466z"/>
    <path class="fil3" d="M23187 9192l-116 1054c0,0 268,271 878,383 611,112 910,-7 910,-7l326 -1015c0,0 -1145,108 -1998,-415z"/>
    <path class="fil2 str2" d="M24108 7922l-266 -50 -317 215c0,0 -109,100 43,310 152,209 1217,398 1217,398l517 -40 145 -246 -242 -363 -1097 -224z"/>
    <path class="fil2 str2" d="M23525 8087c0,0 -274,-38 -242,229 33,267 697,525 1369,594 672,69 890,-58 905,-199 14,-140 -110,-202 -110,-202 -213,333 -1996,43 -1922,-422z"/>
    <path class="fil2 str2" d="M24551 7872c376,76 669,198 654,274 -15,75 -231,158 -720,48 -488,-110 -658,-247 -643,-322 15,-76 332,-75 709,0z"/>
   </g>
   <g>
    <ellipse class="fil0 str5" transform="matrix(1.05125 0.638979 -0.938298 1.19394 19340.1 5739.68)" rx="1114" ry="1214"/>
    <ellipse class="fil3" transform="matrix(0.998712 0.607042 -0.891401 1.13427 19220 5648.21)" rx="1114" ry="1214"/>
    <line class="fil0 str1" x1="20161" y1="5821" x2="19048" y2= "5698" />
    <path class="fil2" d="M19461 4569l576 -306 33 503 -40 -1c8,-115 -40,-211 -118,-235l-708 1023c48,52 41,147 -22,226 -72,92 -190,130 -264,85 -74,-45 -75,-156 -3,-247 50,-65 124,-103 189,-104l681 -997c-127,5 -221,30 -300,72l-24 -19z"/>
    <path class="fil2" d="M18228 5185l584 433c13,-29 31,-59 56,-87l-570 -439c89,-74 213,-92 213,-92l7 -34 -368 88 3 389 40 -24c0,0 -29,-77 34,-233l1 -1z"/>
    <ellipse class="fil3" transform="matrix(0.046963 0.0285453 -0.0419169 0.0533372 19048.4 5698.03)" rx="1114" ry="1214"/>
   </g>
   <path class="fil4" d="M7832 6303c-405,109 -1334,295 -1858,-120 -683,-543 -376,-1427 671,-1744 2438,-739 2966,1142 1668,1709l-89 547 -392 -392z"/>
   <g>
    <ellipse class="fil0 str3" transform="matrix(1.19548 0.752768 -0.907956 1.44194 7154.84 5247.88)" rx="310" ry="316"/>
    <line class="fil0 str3" x1="7849" y1="5872" x2="7471" y2= "5555" />
   </g>
   <g>
    <polygon class="fil2 str2" points="23414,14705 19217,16013 22576,17739 26816,16620 "/>
    <polygon class="fil2 str2" points="22504,18455 19188,16728 19217,16013 22576,17739 "/>
    <polygon class="fil2 str2" points="26816,16620 26708,17291 22504,18455 22576,17739 "/>
    <line class="fil0 str5" x1="22186" y1="15630" x2="23934" y2= "16692" />
    <line class="fil0 str5" x1="22124" y1="16013" x2="23147" y2= "16620" />
    <line class="fil0 str2" x1="21456" y1="16219" x2="22605" y2= "16862" />
    <line class="fil0 str2" x1="21395" y1="16533" x2="21879" y2= "16825" />
    <polygon class="fil3" points="23374,15077 22904,15225 25281,16573 25783,16433 "/>
    <line class="fil0 str4" x1="19520" y1="16363" x2="21456" y2= "17392" />
    <line class="fil0 str4" x1="19736" y1="16659" x2="20755" y2= "17204" />
    <line class="fil0 str4" x1="23128" y1="17858" x2="24808" y2= "17432" />
    <line class="fil0 str4" x1="24208" y1="17764" x2="25248" y2= "17490" />
   </g>
   <g>
    <polygon class="fil2 str2" points="23060,13874 18863,15182 22222,16909 26462,15789 "/>
    <polygon class="fil2 str2" points="22150,17624 18834,15897 18863,15182 22222,16909 "/>
    <polygon class="fil2 str2" points="26462,15789 26354,16461 22150,17624 22222,16909 "/>
    <line class="fil0 str5" x1="21832" y1="14799" x2="23580" y2= "15861" />
    <line class="fil0 str5" x1="21770" y1="15182" x2="22793" y2= "15789" />
    <line class="fil0 str2" x1="21102" y1="15388" x2="22251" y2= "16031" />
    <line class="fil0 str2" x1="21041" y1="15702" x2="21525" y2= "15995" />
    <polygon class="fil3" points="23020,14246 22551,14395 24927,15742 25429,15603 "/>
    <line class="fil0 str4" x1="19166" y1="15532" x2="21102" y2= "16561" />
    <line class="fil0 str4" x1="19382" y1="15828" x2="20401" y2= "16373" />
    <line class="fil0 str4" x1="22774" y1="17027" x2="24454" y2= "16601" />
    <line class="fil0 str4" x1="23854" y1="16933" x2="24894" y2= "16659" />
   </g>
   <g>
    <polygon class="fil2 str2" points="22890,13116 18693,14424 22052,16151 26293,15031 "/>
    <polygon class="fil2 str2" points="21980,16866 18664,15139 18693,14424 22052,16151 "/>
    <polygon class="fil2 str2" points="26293,15031 26184,15703 21980,16866 22052,16151 "/>
    <line class="fil0 str5" x1="21662" y1="14041" x2="23410" y2= "15103" />
    <line class="fil0 str5" x1="21601" y1="14424" x2="22623" y2= "15031" />
    <line class="fil0 str2" x1="20932" y1="14630" x2="22081" y2= "15273" />
    <line class="fil0 str2" x1="20871" y1="14944" x2="21355" y2= "15237" />
    <polygon class="fil3" points="22850,13488 22381,13637 24758,14984 25260,14845 "/>
    <line class="fil0 str4" x1="18996" y1="14774" x2="20932" y2= "15803" />
    <line class="fil0 str4" x1="19213" y1="15070" x2="20231" y2= "15615" />
    <line class="fil0 str4" x1="22604" y1="16269" x2="24284" y2= "15843" />
    <line class="fil0 str4" x1="23684" y1="16175" x2="24725" y2= "15901" />
   </g>
   <path class="fil0 str1" d="M9191 18193c390,49 651,107 1149,246"/>
   <g>
    <polygon class="fil2 str3" points="15752,10533 14981,13368 17192,12897 18024,10106 "/>
    <line class="fil0 str3" x1="15981" y1="11046" x2="17444" y2= "10759" />
    <line class="fil0 str3" x1="15838" y1="11558" x2="17302" y2= "11272" />
    <line class="fil0 str3" x1="15732" y1="12064" x2="16938" y2= "11828" />
    <line class="fil0 str3" x1="15562" y1="12560" x2="16446" y2= "12387" />
   </g>
  </g>
 </g>
</svg>
